<?xml version="1.0" encoding="UTF-8"?>
<svg id="Layer_1" data-name="Layer 1" xmlns="http://www.w3.org/2000/svg" viewBox="0 0 897.44 273.5">
  <defs>
    <style>
      .cls-1 {
        fill: #ffcd00;
      }
    </style>
  </defs>
  <path class="cls-1" d="m1.2,1.37v150.12c0,4.02.2,10.11.58,13.97,2.88,29.1,16.43,56.02,38.16,75.8,21.88,19.91,50.24,30.88,79.86,30.88s57.98-10.97,79.86-30.88c21.73-19.78,35.29-46.7,38.16-75.8.38-3.84.58-9.93.58-13.97V1.37H1.2Z"/>
  <g>
    <path d="m0,0v151.63c0,4.07.2,10.22.58,14.11,2.9,29.39,16.6,56.59,38.55,76.57,22.1,20.11,50.75,31.19,80.67,31.19s58.57-11.08,80.67-31.19c21.95-19.98,35.64-47.17,38.55-76.57.39-3.88.59-10.04.59-14.11V0H0Zm235.88,151.63c0,3.98-.2,9.98-.57,13.74-2.81,28.47-16.08,54.82-37.35,74.18-17.75,16.16-39.87,26.29-63.44,29.29-1.47-2.96-3.72-5.22-3.72-5.22h0s-20.33-20.37-20.33-20.37c-3.55-3.98-5.19-8.12-5.98-11.05h0c-.14-.56-.7-.31-.7.06v36.41c-23.09-3.19-44.74-13.25-62.17-29.12-21.27-19.36-34.53-45.7-37.35-74.17-.37-3.77-.57-9.77-.57-13.74V3.73h232.16v147.91Z"/>
    <path d="m135.77,241.83c0-4.89-4.96-9.86-4.96-9.86h0s-19.26-19.29-19.26-19.29c-4.12-4.13-5.75-8.69-6.38-11.88-.08-.43-.7-.4-.76.03-.4,2.8-.61,5.64-.61,8.51l.22,14.38c0,4.89,4.96,9.86,4.96,9.86l19.67,19.71c3.03,3.17,4.81,6.55,5.86,9.35h0c.54,1.58,1.48,1.19,1.48.45v-2.45l-.22-18.8h0Z"/>
    <path d="m142.28,182.77c-3.92,1.51-7.55,3.88-9.57,1.86-.99-.99-.82-2.25-.4-4.07,0-.02,0-.03.01-.05,0-.02.01-.05.02-.07,0,0,0-.01,0-.02.41-1.71,1.18-3.74,1.64-6.22.91-4.92.15-10.74-5.15-14.99-.25-.2-.63-.18-.85.05l-.85.85h0s0,0,0,0l-5.7,5.72c-7.52,7.54-12.85,16.87-15.56,26.98-.2.74-.25,1.51-.12,2.26.78,4.36,4.78,8.39,4.83,8.43l18.6,18.63c2.59,2.91,4.17,5.86,5.13,8.32,0,0,0,0,0,0,.54,1.59,1.48,1.19,1.48.45v-22.44c0-7.49,2.97-14.68,8.26-19.98l6.91-6.92c.1-.1.08-.28-.05-.34-1.75-.86-5.05.15-8.61,1.55Z"/>
    <path d="m34.26,177.99s.04-.04.06-.07c23.75-31.1,72.4-36.96,93.42-22.63.54.36,2.7,1.89,5,4.13h0s0,0,0,0c.1.09.19.18.29.28,5.98,6,4.37,15.28,3.77,20.37-.03.29.24.53.52.46,2.82-.71,12.64-3.87,15.57-.93h0s3.52,3.53,3.52,3.53l1.75,1.75c.22.22.58.22.8,0l25.85-25.9c.22-.22.22-.58,0-.8l-1.75-1.75-3.52-3.53h0c-2.93-2.94.22-12.78.92-15.6.07-.29-.16-.56-.46-.53-5.08.6-14.34,2.22-20.33-3.78-.09-.1-.18-.19-.28-.29,0,0,0,0,0,0h0c-1.18-1.2-1.26-1.38-2.31-2.61-27.41-32.02-11.75-72.88,21.22-96.39t0,0c1.04-.75,1.87-2.31-.81-2.47-.25-.01-.87-.01-.94-.01-79.68,1.19-144.04,65.65-145.2,145.48,0,.06-.02.76.01,1.06.19,1.59,1.6,1.83,2.88.21Z"/>
    <polygon points="181.49 150.95 181.49 150.95 181.48 150.96 181.49 150.95"/>
    <path d="m164.22,132.58c3.3,1.66,6.91,1.79,10.14,1.19,2.47-.46,4.5-1.24,6.2-1.64,0,0,.01,0,.02,0,.02,0,.05-.01.07-.02.02,0,.03,0,.05-.01,1.81-.43,3.07-.59,4.06.4,2.01,2.02-.35,5.66-1.86,9.59-1.39,3.58-2.4,6.89-1.54,8.64.06.12.23.14.33.04l26.44-26.49c.07-.07.12-.18.12-.28v-3.9c0-.19-.16-.15-.22-.11,0,0,0,0,0,0-4.22,2.7-9.2,4.26-14.54,4.26-5.37,0-9.59-1.58-13.8-4.3-.08-.05-.18-.05-.26,0l-15.31,11.55c-.38.29-.32.86.11,1.08Z"/>
  </g>
  <g>
    <path d="m384.4,44.37v12.23c0,1.58-.79,2.36-2.36,2.36h-24.05c-.56,0-.83.28-.83.83v77.14c0,1.58-.79,2.36-2.36,2.36h-14.87c-1.58,0-2.36-.79-2.36-2.36V59.79c0-.56-.28-.83-.83-.83h-23.35c-1.58,0-2.36-.79-2.36-2.36v-12.23c0-1.58.79-2.36,2.36-2.36h68.67c1.58,0,2.36.79,2.36,2.36Z"/>
    <path d="m434.58,117.48c.56-.65,1.16-.97,1.81-.97.56,0,1.06.23,1.53.69l7.92,7.64c.56.56.83,1.11.83,1.67,0,.65-.19,1.21-.56,1.67-3.06,3.8-6.97,6.79-11.75,8.97-4.77,2.18-9.99,3.27-15.64,3.27-8.53,0-15.59-2.18-21.2-6.53-5.61-4.35-9.38-10.33-11.33-17.93-1.11-4.08-1.67-8.39-1.67-12.93,0-5.37.51-9.92,1.53-13.62,1.85-6.86,5.58-12.37,11.19-16.54,5.6-4.17,12.25-6.25,19.95-6.25,9.08,0,16.28,2.69,21.61,8.06,5.33,5.38,8.78,12.93,10.36,22.66.37,3.06.65,6.44.83,10.15,0,1.58-.79,2.36-2.36,2.36h-42.67c-.56,0-.83.28-.83.83.28,1.95.6,3.38.97,4.31.92,2.87,2.76,5.07,5.49,6.6,2.73,1.53,6.05,2.29,9.94,2.29,6.12-.28,10.79-2.41,14.04-6.39Zm-25.09-31.76c-1.99,1.44-3.36,3.45-4.1,6.05-.46,1.76-.74,2.92-.83,3.47-.09.56.14.83.7.83h23.63c.46,0,.7-.18.7-.56,0-1.02-.19-2.08-.56-3.2-.83-2.69-2.27-4.82-4.31-6.39-2.04-1.58-4.63-2.36-7.78-2.36-2.97,0-5.45.72-7.44,2.15Z"/>
    <path d="m464.46,136.94V44.37c0-1.58.79-2.36,2.36-2.36h14.87c1.57,0,2.36.79,2.36,2.36v92.57c0,1.58-.79,2.36-2.36,2.36h-14.87c-1.58,0-2.36-.79-2.36-2.36Z"/>
    <path d="m549.39,117.48c.56-.65,1.16-.97,1.81-.97.56,0,1.06.23,1.53.69l7.92,7.64c.56.56.83,1.11.83,1.67,0,.65-.19,1.21-.56,1.67-3.06,3.8-6.97,6.79-11.75,8.97-4.77,2.18-9.99,3.27-15.64,3.27-8.53,0-15.59-2.18-21.2-6.53-5.61-4.35-9.38-10.33-11.33-17.93-1.11-4.08-1.67-8.39-1.67-12.93,0-5.37.51-9.92,1.53-13.62,1.85-6.86,5.58-12.37,11.19-16.54,5.61-4.17,12.25-6.25,19.95-6.25,9.08,0,16.28,2.69,21.61,8.06,5.33,5.38,8.78,12.93,10.36,22.66.37,3.06.65,6.44.83,10.15,0,1.58-.79,2.36-2.36,2.36h-42.67c-.56,0-.83.28-.83.83.28,1.95.6,3.38.97,4.31.92,2.87,2.76,5.07,5.49,6.6,2.73,1.53,6.05,2.29,9.94,2.29,6.12-.28,10.79-2.41,14.04-6.39Zm-25.09-31.76c-1.99,1.44-3.36,3.45-4.1,6.05-.46,1.76-.74,2.92-.83,3.47-.09.56.14.83.7.83h23.63c.46,0,.7-.18.7-.56,0-1.02-.19-2.08-.56-3.2-.83-2.69-2.27-4.82-4.31-6.39-2.04-1.58-4.63-2.36-7.78-2.36-2.97,0-5.45.72-7.44,2.15Z"/>
    <path d="m675.18,73.28c4.08,4.36,6.12,10.47,6.12,18.35v45.31c0,1.58-.79,2.36-2.36,2.36h-14.87c-1.58,0-2.36-.79-2.36-2.36v-41c0-3.8-.97-6.81-2.92-9.04-1.95-2.22-4.54-3.34-7.78-3.34s-5.89,1.11-7.92,3.34c-2.04,2.22-3.06,5.19-3.06,8.9v41.14c0,1.58-.79,2.36-2.36,2.36h-14.73c-1.58,0-2.36-.79-2.36-2.36v-41c0-3.71-1.02-6.69-3.06-8.97-2.04-2.27-4.68-3.41-7.92-3.41-2.97,0-5.44.88-7.44,2.64-1.99,1.76-3.17,4.22-3.54,7.37v43.37c0,1.58-.79,2.36-2.36,2.36h-14.87c-1.58,0-2.36-.79-2.36-2.36v-66.72c0-1.57.79-2.36,2.36-2.36h14.87c1.57,0,2.36.79,2.36,2.36v4.45c0,.37.12.6.35.7.23.09.44-.04.62-.42,3.8-5.47,9.64-8.2,17.51-8.2,4.63,0,8.66.95,12.09,2.85,3.43,1.9,6.07,4.66,7.92,8.27.09.37.25.53.49.49.23-.04.44-.21.63-.49,2.13-3.71,4.91-6.48,8.34-8.34,3.43-1.85,7.32-2.78,11.68-2.78,7.23,0,12.88,2.18,16.96,6.53Z"/>
    <path d="m741.9,69.87c4.73,2.08,8.41,4.93,11.05,8.55,2.64,3.61,3.96,7.64,3.96,12.09v46.42c0,1.58-.79,2.36-2.36,2.36h-14.87c-1.58,0-2.36-.79-2.36-2.36v-3.34c0-.37-.09-.58-.28-.62-.19-.05-.42.07-.7.35-4.26,4.73-10.61,7.09-19.04,7.09-7.14,0-12.88-1.76-17.24-5.28-4.36-3.52-6.53-8.71-6.53-15.57s2.5-12.67,7.5-16.61c5-3.94,12.14-5.91,21.41-5.91h14.04c.56,0,.83-.28.83-.83v-2.92c0-3.06-.95-5.44-2.85-7.16-1.9-1.71-4.66-2.57-8.27-2.57-2.78,0-5.07.46-6.88,1.39-1.81.93-3.04,2.22-3.68,3.89-.56,1.3-1.48,1.9-2.78,1.81l-15.43-1.95c-.74-.09-1.32-.3-1.74-.62-.42-.32-.58-.76-.49-1.32.46-3.8,2.06-7.23,4.79-10.29,2.73-3.06,6.35-5.44,10.84-7.16,4.49-1.71,9.47-2.57,14.94-2.57,6.02,0,11.4,1.04,16.12,3.13Zm-8.76,52.75c2.78-2.13,4.17-4.87,4.17-8.2v-4.87c0-.56-.28-.83-.83-.83h-9.87c-4.17,0-7.46.79-9.87,2.36-2.41,1.58-3.61,3.8-3.61,6.67,0,2.5.9,4.47,2.71,5.91,1.81,1.44,4.19,2.15,7.16,2.15,3.98,0,7.37-1.06,10.15-3.2Z"/>
    <path d="m815.57,68.55c1.11.56,1.53,1.53,1.25,2.92l-2.64,14.59c-.09.83-.35,1.34-.76,1.53-.42.19-1.09.19-2.02,0-1.48-.37-2.83-.56-4.03-.56-.65,0-1.71.09-3.2.28-3.34.28-6.16,1.51-8.48,3.68-2.32,2.18-3.47,5.07-3.47,8.69v37.25c0,1.58-.79,2.36-2.36,2.36h-14.87c-1.58,0-2.36-.79-2.36-2.36v-66.72c0-1.57.79-2.36,2.36-2.36h14.87c1.58,0,2.36.79,2.36,2.36v4.31c0,.37.09.6.28.7.18.09.42,0,.69-.28,3.71-5.37,8.71-8.06,15.01-8.06,2.96,0,5.42.56,7.37,1.67Z"/>
    <path d="m827.94,136.94V44.37c0-1.58.79-2.36,2.36-2.36h14.87c1.58,0,2.36.79,2.36,2.36v45.87c0,.37.12.58.35.63.23.05.44-.07.62-.35l18.49-21.27c.92-.93,1.9-1.39,2.92-1.39h16.82c.65,0,1.16.12,1.53.35.37.23.56.58.56,1.04,0,.56-.19,1.07-.56,1.53l-17.1,21.41c-.28.28-.33.65-.14,1.11l20.43,43.23.28,1.11c0,1.11-.7,1.67-2.08,1.67h-15.71c-1.3,0-2.22-.6-2.78-1.81l-13.48-31.83c-.28-.56-.65-.6-1.11-.14l-8.62,10.98c-.28.37-.42.69-.42.97v19.46c0,1.58-.79,2.36-2.36,2.36h-14.87c-1.58,0-2.36-.79-2.36-2.36Z"/>
  </g>
  <g>
    <path d="m322.43,184.14l26.36.03v4.94s-20.36-.03-20.36-.03l-.02,13,19.18.02v4.94s-19.18-.02-19.18-.02l-.02,18.59h-6s.05-41.48.05-41.48Z"/>
    <path d="m380.12,206.34l-.02,19.36h-6.06s.02-19.36.02-19.36l-16.51-22.14h6.94s12.63,17.14,12.63,17.14l12.67-17.1h6.88s-16.56,22.11-16.56,22.11Z"/>
    <path d="m406.85,184.25h6.06s-.04,36.42-.04,36.42l20.12.02v5.06s-26.19-.03-26.19-.03l.05-41.48Z"/>
    <path d="m470.34,225.8l-20.39-19.56-.02,19.53h-6.06s.05-41.48.05-41.48h6.06s-.02,18.89-.02,18.89l19.55-18.86h7.47s-20.97,20.04-20.97,20.04l21.92,21.44h-7.59Z"/>
    <path d="m488.39,184.35l26.94.03v4.88s-21.01-.03-21.01-.03l-.02,13.06,19.83.02v4.94s-19.83-.02-19.83-.02l-.02,13.71,21,.03v4.88s-26.95-.03-26.95-.03l.05-41.48Z"/>
    <path d="m533.96,225.06c-2.69-.87-4.99-2.14-6.91-3.83l2.18-4.47c2.04,1.65,4.14,2.84,6.32,3.57,2.18.73,4.62,1.09,7.32,1.1,3.1,0,5.49-.57,7.18-1.73,1.69-1.15,2.53-2.79,2.54-4.91,0-1.8-.78-3.15-2.35-4.03-1.57-.88-4.08-1.72-7.53-2.51-3.29-.71-6-1.52-8.12-2.42-2.12-.9-3.77-2.13-4.97-3.68-1.2-1.55-1.79-3.52-1.79-5.92,0-2.43.64-4.57,1.92-6.41,1.28-1.84,3.09-3.28,5.45-4.32,2.35-1.04,5.08-1.55,8.18-1.55,2.9,0,5.64.45,8.21,1.33,2.57.89,4.67,2.15,6.32,3.8l-2.12,4.47c-1.92-1.57-3.89-2.74-5.91-3.51-2.02-.77-4.17-1.15-6.44-1.16-2.98,0-5.33.61-7.03,1.84-1.71,1.23-2.56,2.95-2.56,5.14,0,1.88.74,3.31,2.23,4.27,1.49.96,3.88,1.84,7.17,2.63,3.45.79,6.24,1.61,8.38,2.45,2.14.85,3.84,2,5.12,3.48,1.27,1.47,1.91,3.38,1.9,5.74,0,2.39-.64,4.49-1.92,6.29-1.28,1.8-3.1,3.19-5.48,4.17-2.38.98-5.19,1.46-8.44,1.46-3.22,0-6.17-.44-8.85-1.3Z"/>
    <path d="m598.76,225.96l-20.39-19.56-.02,19.53h-6.06s.05-41.48.05-41.48h6.06s-.02,18.89-.02,18.89l19.55-18.86h7.47s-20.97,20.04-20.97,20.04l21.92,21.44h-7.59Z"/>
    <path d="m620.74,223.87c-2.88-1.73-5.1-4.18-6.67-7.36-1.57-3.18-2.34-6.92-2.34-11.24,0-4.35.79-8.13,2.34-11.32,1.55-3.19,3.78-5.64,6.69-7.35,2.9-1.7,6.32-2.55,10.24-2.55,3.96,0,7.39.86,10.29,2.57,2.9,1.71,5.12,4.17,6.67,7.36,1.54,3.2,2.31,6.96,2.31,11.27,0,4.32-.78,8.07-2.34,11.26-1.55,3.2-3.78,5.65-6.69,7.37-2.91,1.72-6.34,2.58-10.3,2.58-3.92,0-7.32-.87-10.21-2.6Zm19.92-6.56c2.32-2.82,3.48-6.84,3.49-12.06,0-5.22-1.14-9.23-3.43-12.04-2.29-2.81-5.54-4.21-9.73-4.22-4.12,0-7.33,1.39-9.62,4.2-2.3,2.8-3.45,6.81-3.46,12.03,0,5.22,1.14,9.24,3.43,12.06s5.5,4.24,9.61,4.25c4.16,0,7.39-1.4,9.71-4.22Z"/>
    <path d="m702.53,184.61l-.05,41.48h-5.47s.1-30.01.1-30.01l-12.38,23.34h-4.12s-12.38-23.08-12.38-23.08l.02,29.71h-5.47s.05-41.48.05-41.48h4.88s15.03,28.73,15.03,28.73l14.98-28.69h4.82Z"/>
    <path d="m758.84,184.68l-.05,41.48h-5.47s.1-30.01.1-30.01l-12.38,23.34h-4.12s-12.38-23.08-12.38-23.08l.02,29.71h-5.47s.05-41.48.05-41.48h4.88s15.03,28.73,15.03,28.73l14.98-28.69h4.82Z"/>
    <path d="m777.91,222.36c-2.86-2.87-4.29-7.08-4.28-12.65l.03-25h6s-.03,25.42-.03,25.42c0,3.8.9,6.69,2.73,8.65,1.82,1.96,4.54,2.95,8.14,2.95,3.57,0,6.28-.97,8.12-2.93,1.84-1.96,2.77-4.84,2.77-8.64l.03-25.42h6s-.03,25.01-.03,25.01c0,5.53-1.45,9.74-4.34,12.61s-7.07,4.32-12.57,4.31c-5.53,0-9.73-1.44-12.58-4.31Z"/>
    <path d="m855.97,184.8l-.05,41.48h-4.65s-23.67-31.33-23.67-31.33l-.04,31.3h-5.71s.05-41.48.05-41.48h4.59s23.73,31.39,23.73,31.39l.04-31.36h5.71Z"/>
    <path d="m870.5,184.82l26.94.03v4.88s-21.01-.03-21.01-.03l-.02,13.06,19.83.02v4.94s-19.83-.02-19.83-.02l-.02,13.71,21,.03v4.88s-26.95-.03-26.95-.03l.05-41.48Z"/>
  </g>
</svg>